<?xml version="1.0" encoding="UTF-8" standalone="no"?>
<!DOCTYPE svg PUBLIC "-//W3C//DTD SVG 1.0//EN" "http://www.w3.org/TR/2001/PR-SVG-20010719/DTD/svg10.dtd">
<svg width="53cm" height="30cm" viewBox="76 157 1051 581" xmlns="http://www.w3.org/2000/svg" xmlns:xlink="http://www.w3.org/1999/xlink">
  <polyline style="fill: none; fill-opacity:0; stroke-width: 3; stroke: #000000" points="470.6,549.61 470.6,357.022 703.862,357.022 "/>
  <polyline style="fill: none; fill-opacity:0; stroke-width: 3; stroke: #000000" points="749.248,549.008 749.248,466.504 749.361,466.504 749.361,384 "/>
  <polyline style="fill: none; fill-opacity:0; stroke-width: 3; stroke: #000000" points="1052.25,550.008 1052.25,357.124 794.872,357.124 "/>
  <polyline style="fill: none; fill-opacity:0; stroke-width: 3; stroke: #000000" points="749.284,330.262 749.284,277.454 749.408,277.454 749.408,224.647 "/>
  <polyline style="fill: none; fill-opacity:0; stroke-width: 3; stroke: #000000" points="705.478,202.432 624.974,202.432 624.974,201.647 544.824,201.647 "/>
  <text font-size="12.8" style="fill: #000000;text-anchor:start;font-family:monospace;font-style:normal;font-weight:700" x="764.1" y="324.116">
    <tspan x="764.1" y="324.116">lr0</tspan>
  </text>
  <text font-size="12.8" style="fill: #000000;text-anchor:start;font-family:monospace;font-style:normal;font-weight:700" x="526.1" y="566.116">
    <tspan x="526.1" y="566.116">sw0</tspan>
  </text>
  <text font-size="12.8" style="fill: #000000;text-anchor:start;font-family:monospace;font-style:normal;font-weight:700" x="803.1" y="565.116">
    <tspan x="803.1" y="565.116">sw1</tspan>
  </text>
  <text font-size="12.8" style="fill: #000000;text-anchor:start;font-family:monospace;font-style:normal;font-weight:700" x="1104.1" y="567.116">
    <tspan x="1104.1" y="567.116">sw2</tspan>
  </text>
  <text font-size="12.8" style="fill: #000000;text-anchor:start;font-family:monospace;font-style:normal;font-weight:700" x="762.1" y="272.866">
    <tspan x="762.1" y="272.866">192.168.3.254/24</tspan>
  </text>
  <text font-size="12.8" style="fill: #000000;text-anchor:start;font-family:monospace;font-style:normal;font-weight:700" x="574.1" y="348.866">
    <tspan x="574.1" y="348.866">192.168.1.254/24</tspan>
  </text>
  <text font-size="12.8" style="fill: #000000;text-anchor:start;font-family:monospace;font-style:normal;font-weight:700" x="766.1" y="405.866">
    <tspan x="766.1" y="405.866">192.168.2.254/24</tspan>
  </text>
  <g>
    <rect style="fill: #ffffff" x="416.882" y="646.706" width="52.825" height="46.6103"/>
    <ellipse style="fill: #ffffff" cx="443.295" cy="693.317" rx="26.4125" ry="7.76838"/>
    <ellipse style="fill: #ffffff" cx="443.295" cy="646.706" rx="26.4125" ry="7.76838"/>
    <ellipse style="fill: none; fill-opacity:0; stroke-width: 2; stroke: #000000" cx="443.295" cy="646.706" rx="26.4125" ry="7.76838"/>
    <path style="fill: none; fill-opacity:0; stroke-width: 2; stroke: #000000" d="M 469.707 646.706 L 469.707,693.317 C 469.707,697.607 457.882,701.085 443.295,701.085 C 428.707,701.085 416.882,697.607 416.882,693.317 L 416.882,646.706"/>
    <text font-size="12.8" style="fill: #000000;text-anchor:middle;font-family:sans-serif;font-style:normal;font-weight:normal" x="443.295" y="712.973">
      <tspan x="443.295" y="712.973"></tspan>
    </text>
  </g>
  <polyline style="fill: none; fill-opacity:0; stroke-width: 3; stroke: #000000" points="443.294,638.938 443.294,618.468 443.406,618.468 443.406,598 "/>
  <g>
    <rect style="fill: #b3b3b3" x="299.352" y="618.63" width="31.7584" height="74.1029"/>
    <rect style="fill: none; fill-opacity:0; stroke-width: 1.6; stroke: #000000" x="299.352" y="618.63" width="31.7584" height="74.1029"/>
    <rect style="fill: none; fill-opacity:0; stroke-width: 0.2; stroke: #000000" x="302.528" y="623.076" width="25.4067" height="8.4689"/>
    <rect style="fill: none; fill-opacity:0; stroke-width: 0.2; stroke: #000000" x="302.528" y="631.545" width="25.4067" height="8.4689"/>
    <rect style="fill: none; fill-opacity:0; stroke-width: 0.2; stroke: #000000" x="302.528" y="640.014" width="25.4067" height="8.4689"/>
    <rect style="fill: none; fill-opacity:0; stroke-width: 0.2; stroke: #000000" x="302.528" y="648.483" width="25.4067" height="8.4689"/>
    <rect style="fill: none; fill-opacity:0; stroke-width: 0.2; stroke: #000000" x="302.528" y="658.646" width="15.8792" height="5.08134"/>
    <ellipse style="fill: #00ff00" cx="326.346" cy="659.492" rx="1.11154" ry="1.11154"/>
    <ellipse style="fill: none; fill-opacity:0; stroke-width: 0.2; stroke: #000000" cx="326.346" cy="659.492" rx="1.11154" ry="1.11154"/>
    <ellipse style="fill: #ffff00" cx="326.346" cy="662.88" rx="1.11154" ry="1.11154"/>
    <ellipse style="fill: none; fill-opacity:0; stroke-width: 0.2; stroke: #000000" cx="326.346" cy="662.88" rx="1.11154" ry="1.11154"/>
    <rect style="fill: #ffffff" x="319.995" y="660.339" width="3.811" height="3.38756"/>
    <rect style="fill: none; fill-opacity:0; stroke-width: 0.2; stroke: #000000" x="319.995" y="660.339" width="3.811" height="3.38756"/>
    <path style="fill: none; fill-opacity:0; stroke-width: 0.2; stroke: #000000" d="M 304.645 670.502 L 304.645,689.028"/>
    <path style="fill: none; fill-opacity:0; stroke-width: 0.2; stroke: #000000" d="M 309.938 670.502 L 309.938,689.028"/>
    <path style="fill: none; fill-opacity:0; stroke-width: 0.2; stroke: #000000" d="M 315.231 670.502 L 315.231,689.028"/>
    <path style="fill: none; fill-opacity:0; stroke-width: 0.2; stroke: #000000" d="M 320.524 670.502 L 320.524,689.028"/>
    <path style="fill: none; fill-opacity:0; stroke-width: 0.2; stroke: #000000" d="M 325.817 670.502 L 325.817,689.028"/>
    <path style="fill: none; fill-opacity:0; stroke-width: 0.2; stroke: #000000" d="M 331.11 670.502 L 331.11,689.028"/>
    <polygon style="fill: #999999" points="293,699.085 299.352,686.381 299.352,692.733 331.11,692.733 331.11,686.381 339.579,699.085 "/>
    <polygon style="fill: none; fill-opacity:0; stroke-width: 0.2; stroke: #000000" points="293,699.085 299.352,686.381 299.352,692.733 331.11,692.733 331.11,686.381 339.579,699.085 "/>
    <text font-size="12.8" style="fill: #000000;text-anchor:middle;font-family:sans-serif;font-style:normal;font-weight:normal" x="316.289" y="713.089">
      <tspan x="316.289" y="713.089"></tspan>
    </text>
  </g>
  <polyline style="fill: none; fill-opacity:0; stroke-width: 3; stroke: #000000" points="316.29,617.836 316.29,587.084 399.476,587.084 399.476,586.902 "/>
  <text font-size="12.8" style="fill: #000000;text-anchor:middle;font-family:monospace;font-style:normal;font-weight:700" x="318.484" y="718.865">
    <tspan x="318.484" y="718.865">pod0</tspan>
    <tspan x="318.484" y="734.865">192.168.1.11</tspan>
  </text>
  <text font-size="12.8" style="fill: #000000;text-anchor:middle;font-family:monospace;font-style:normal;font-weight:700" x="468.33" y="717.677">
    <tspan x="468.33" y="717.677">pod1</tspan>
    <tspan x="468.33" y="733.677">192.168.1.12</tspan>
  </text>
  <g>
    <rect style="fill: #b3b3b3" x="705.322" y="620.784" width="31.7584" height="74.1029"/>
    <rect style="fill: none; fill-opacity:0; stroke-width: 1.6; stroke: #000000" x="705.322" y="620.784" width="31.7584" height="74.1029"/>
    <rect style="fill: none; fill-opacity:0; stroke-width: 0.2; stroke: #000000" x="708.498" y="625.23" width="25.4067" height="8.4689"/>
    <rect style="fill: none; fill-opacity:0; stroke-width: 0.2; stroke: #000000" x="708.498" y="633.699" width="25.4067" height="8.4689"/>
    <rect style="fill: none; fill-opacity:0; stroke-width: 0.2; stroke: #000000" x="708.498" y="642.168" width="25.4067" height="8.4689"/>
    <rect style="fill: none; fill-opacity:0; stroke-width: 0.2; stroke: #000000" x="708.498" y="650.637" width="25.4067" height="8.4689"/>
    <rect style="fill: none; fill-opacity:0; stroke-width: 0.2; stroke: #000000" x="708.498" y="660.8" width="15.8792" height="5.08134"/>
    <ellipse style="fill: #00ff00" cx="732.316" cy="661.646" rx="1.11154" ry="1.11154"/>
    <ellipse style="fill: none; fill-opacity:0; stroke-width: 0.2; stroke: #000000" cx="732.316" cy="661.646" rx="1.11154" ry="1.11154"/>
    <ellipse style="fill: #ffff00" cx="732.316" cy="665.034" rx="1.11154" ry="1.11154"/>
    <ellipse style="fill: none; fill-opacity:0; stroke-width: 0.2; stroke: #000000" cx="732.316" cy="665.034" rx="1.11154" ry="1.11154"/>
    <rect style="fill: #ffffff" x="725.965" y="662.493" width="3.811" height="3.38756"/>
    <rect style="fill: none; fill-opacity:0; stroke-width: 0.2; stroke: #000000" x="725.965" y="662.493" width="3.811" height="3.38756"/>
    <path style="fill: none; fill-opacity:0; stroke-width: 0.2; stroke: #000000" d="M 710.615 672.656 L 710.615,691.182"/>
    <path style="fill: none; fill-opacity:0; stroke-width: 0.2; stroke: #000000" d="M 715.908 672.656 L 715.908,691.182"/>
    <path style="fill: none; fill-opacity:0; stroke-width: 0.2; stroke: #000000" d="M 721.201 672.656 L 721.201,691.182"/>
    <path style="fill: none; fill-opacity:0; stroke-width: 0.2; stroke: #000000" d="M 726.494 672.656 L 726.494,691.182"/>
    <path style="fill: none; fill-opacity:0; stroke-width: 0.2; stroke: #000000" d="M 731.787 672.656 L 731.787,691.182"/>
    <path style="fill: none; fill-opacity:0; stroke-width: 0.2; stroke: #000000" d="M 737.08 672.656 L 737.08,691.182"/>
    <polygon style="fill: #999999" points="698.97,701.239 705.322,688.535 705.322,694.887 737.08,694.887 737.08,688.535 745.549,701.239 "/>
    <polygon style="fill: none; fill-opacity:0; stroke-width: 0.2; stroke: #000000" points="698.97,701.239 705.322,688.535 705.322,694.887 737.08,694.887 737.08,688.535 745.549,701.239 "/>
    <text font-size="12.8" style="fill: #000000;text-anchor:middle;font-family:sans-serif;font-style:normal;font-weight:normal" x="722.259" y="715.243">
      <tspan x="722.259" y="715.243"></tspan>
    </text>
  </g>
  <polyline style="fill: none; fill-opacity:0; stroke-width: 3; stroke: #000000" points="722.259,620.784 722.259,614.952 722.054,614.952 722.054,597.398 "/>
  <text font-size="12.8" style="fill: #000000;text-anchor:middle;font-family:monospace;font-style:normal;font-weight:700" x="722.338" y="716.865">
    <tspan x="722.338" y="716.865">pod2</tspan>
    <tspan x="722.338" y="732.865">192.168.2.11</tspan>
  </text>
  <g>
    <path style="fill: #b6c7c9" d="M 592.567 175.748 L 592.524,174.848 L 592.372,173.949 L 592.091,173.065 L 591.701,172.182 L 591.181,171.282 L 590.597,170.414 L 589.86,169.562 L 589.037,168.726 L 588.15,167.889 L 587.11,167.1 L 586.006,166.311 L 584.793,165.569 L 583.472,164.828 L 582.086,164.133 L 580.614,163.455 L 579.033,162.823 L 577.409,162.208 L 575.72,161.64 L 573.944,161.103 L 572.104,160.614 L 570.198,160.141 L 568.228,159.746 L 566.257,159.352 L 564.2,159.02 L 562.099,158.72 L 559.999,158.468 L 557.855,158.263 L 555.69,158.121 L 553.503,157.995 L 551.294,157.931 L 549.085,157.9 L 549.085,157.9 L 546.898,157.931 L 544.668,157.995 L 542.502,158.121 L 540.337,158.263 L 538.171,158.468 L 536.071,158.72 L 533.97,159.02 L 531.935,159.352 L 529.921,159.746 L 527.994,160.141 L 526.088,160.614 L 524.269,161.103 L 522.472,161.64 L 520.783,162.208 L 519.137,162.823 L 517.556,163.455 L 516.084,164.133 L 514.698,164.828 L 513.377,165.569 L 512.164,166.311 L 511.06,167.1 L 510.042,167.889 L 509.111,168.726 L 508.332,169.562 L 507.595,170.414 L 506.989,171.282 L 506.469,172.182 L 506.123,173.065 L 505.841,173.949 L 505.646,174.848 L 505.625,175.748 L 505.625,175.748 L 505.646,176.663 L 505.841,177.563 L 506.123,178.462 L 506.469,179.346 L 506.989,180.23 L 507.595,181.098 L 508.332,181.95 L 509.111,182.802 L 510.042,183.623 L 511.06,184.412 L 512.164,185.201 L 513.377,185.958 L 514.698,186.684 L 516.084,187.379 L 517.556,188.057 L 519.137,188.704 L 520.783,189.288 L 522.472,189.888 L 524.269,190.424 L 526.088,190.913 L 527.994,191.355 L 529.921,191.781 L 531.935,192.16 L 533.97,192.492 L 536.071,192.791 L 538.171,193.044 L 540.337,193.233 L 542.502,193.391 L 544.668,193.533 L 546.898,193.58 L 549.085,193.596 L 549.085,193.596 L 551.294,193.58 L 553.503,193.533 L 555.69,193.391 L 557.855,193.233 L 559.999,193.044 L 562.099,192.791 L 564.2,192.492 L 566.257,192.16 L 568.228,191.781 L 570.198,191.355 L 572.104,190.913 L 573.944,190.424 L 575.72,189.888 L 577.409,189.288 L 579.033,188.704 L 580.614,188.057 L 582.086,187.379 L 583.472,186.684 L 584.793,185.958 L 586.006,185.201 L 587.11,184.412 L 588.15,183.623 L 589.037,182.802 L 589.86,181.95 L 590.597,181.098 L 591.181,180.23 L 591.701,179.346 L 592.091,178.462 L 592.372,177.563 L 592.524,176.663 L 592.567,175.748z"/>
    <path style="fill: #b6c7c9" d="M 524.421 185.122 L 524.377,184.222 L 524.226,183.323 L 524.053,182.439 L 523.749,181.54 L 523.36,180.656 L 522.883,179.788 L 522.32,178.936 L 521.714,178.099 L 521.021,177.263 L 520.241,176.474 L 519.397,175.685 L 518.466,174.943 L 517.426,174.201 L 516.365,173.507 L 515.239,172.829 L 514.027,172.197 L 512.814,171.582 L 511.471,171.014 L 510.129,170.477 L 508.7,170.004 L 507.27,169.515 L 505.776,169.088 L 504.217,168.726 L 502.658,168.394 L 501.056,168.094 L 499.432,167.842 L 497.786,167.637 L 496.118,167.495 L 494.473,167.368 L 492.784,167.289 L 491.095,167.274 L 491.095,167.274 L 489.406,167.289 L 487.717,167.368 L 486.028,167.495 L 484.382,167.637 L 482.714,167.842 L 481.09,168.094 L 479.51,168.394 L 477.95,168.726 L 476.413,169.088 L 474.919,169.515 L 473.446,170.004 L 472.06,170.477 L 470.675,171.014 L 469.375,171.582 L 468.141,172.197 L 466.928,172.829 L 465.802,173.507 L 464.72,174.201 L 463.702,174.943 L 462.792,175.685 L 461.926,176.474 L 461.168,177.263 L 460.454,178.099 L 459.826,178.936 L 459.284,179.788 L 458.808,180.656 L 458.418,181.54 L 458.137,182.439 L 457.92,183.323 L 457.79,184.222 L 457.747,185.122 L 457.747,185.122 L 457.79,186.037 L 457.92,186.937 L 458.137,187.836 L 458.418,188.72 L 458.808,189.604 L 459.284,190.472 L 459.826,191.324 L 460.454,192.16 L 461.168,192.996 L 461.926,193.786 L 462.792,194.575 L 463.702,195.316 L 464.72,196.058 L 465.802,196.752 L 466.928,197.431 L 468.141,198.062 L 469.375,198.662 L 470.675,199.23 L 472.06,199.798 L 473.446,200.287 L 474.919,200.729 L 476.413,201.171 L 477.95,201.534 L 479.51,201.865 L 481.09,202.165 L 482.714,202.402 L 484.382,202.607 L 486.028,202.765 L 487.717,202.907 L 489.406,202.954 L 491.095,202.97 L 491.095,202.97 L 492.784,202.954 L 494.473,202.907 L 496.118,202.765 L 497.786,202.607 L 499.432,202.402 L 501.056,202.165 L 502.658,201.865 L 504.217,201.534 L 505.776,201.171 L 507.27,200.729 L 508.7,200.287 L 510.129,199.798 L 511.471,199.23 L 512.814,198.662 L 514.027,198.062 L 515.239,197.431 L 516.365,196.752 L 517.426,196.058 L 518.466,195.316 L 519.397,194.575 L 520.241,193.786 L 521.021,192.996 L 521.714,192.16 L 522.32,191.324 L 522.883,190.472 L 523.36,189.604 L 523.749,188.72 L 524.053,187.836 L 524.226,186.937 L 524.377,186.037 L 524.421,185.122z"/>
    <path style="fill: #b6c7c9" d="M 482.39 203.349 L 482.368,202.607 L 482.303,201.865 L 482.151,201.124 L 481.956,200.398 L 481.675,199.703 L 481.35,198.977 L 481.004,198.267 L 480.592,197.589 L 480.116,196.91 L 479.574,196.263 L 478.99,195.648 L 478.362,195.016 L 477.691,194.417 L 476.976,193.833 L 476.196,193.296 L 475.395,192.791 L 474.572,192.271 L 473.706,191.813 L 472.775,191.371 L 471.822,190.961 L 470.848,190.598 L 469.83,190.251 L 468.812,189.951 L 467.751,189.683 L 466.668,189.43 L 465.586,189.241 L 464.481,189.051 L 463.334,188.941 L 462.208,188.846 L 461.103,188.799 L 459.956,188.767 L 459.956,188.767 L 458.808,188.799 L 457.66,188.846 L 456.534,188.941 L 455.43,189.051 L 454.304,189.241 L 453.199,189.43 L 452.138,189.683 L 451.099,189.951 L 450.038,190.251 L 449.02,190.598 L 448.046,190.961 L 447.093,191.371 L 446.183,191.813 L 445.296,192.271 L 444.473,192.791 L 443.672,193.296 L 442.914,193.833 L 442.177,194.417 L 441.506,195.016 L 440.878,195.648 L 440.293,196.263 L 439.795,196.91 L 439.319,197.589 L 438.908,198.267 L 438.518,198.977 L 438.193,199.703 L 437.955,200.398 L 437.76,201.124 L 437.587,201.865 L 437.5,202.607 L 437.5,203.349 L 437.5,203.349 L 437.5,204.059 L 437.587,204.801 L 437.76,205.527 L 437.955,206.252 L 438.193,206.994 L 438.518,207.688 L 438.908,208.383 L 439.319,209.077 L 439.795,209.756 L 440.293,210.403 L 440.878,211.034 L 441.506,211.65 L 442.177,212.249 L 442.914,212.817 L 443.672,213.354 L 444.473,213.875 L 445.296,214.395 L 446.183,214.837 L 447.093,215.279 L 448.046,215.689 L 449.02,216.068 L 450.038,216.415 L 451.099,216.715 L 452.138,216.983 L 453.199,217.22 L 454.304,217.425 L 455.43,217.599 L 456.534,217.741 L 457.66,217.82 L 458.808,217.867 L 459.956,217.899 L 459.956,217.899 L 461.103,217.867 L 462.208,217.82 L 463.334,217.741 L 464.481,217.599 L 465.586,217.425 L 466.668,217.22 L 467.751,216.983 L 468.812,216.715 L 469.83,216.415 L 470.848,216.068 L 471.822,215.689 L 472.775,215.279 L 473.706,214.837 L 474.572,214.395 L 475.395,213.875 L 476.196,213.354 L 476.976,212.817 L 477.691,212.249 L 478.362,211.65 L 478.99,211.034 L 479.574,210.403 L 480.116,209.756 L 480.592,209.077 L 481.004,208.383 L 481.35,207.688 L 481.675,206.994 L 481.956,206.252 L 482.151,205.527 L 482.303,204.801 L 482.368,204.059 L 482.39,203.349z"/>
    <path style="fill: #b6c7c9" d="M 518.639 217.378 L 518.617,216.573 L 518.466,215.784 L 518.228,214.979 L 517.946,214.19 L 517.556,213.417 L 517.102,212.644 L 516.517,211.886 L 515.911,211.145 L 515.174,210.45 L 514.395,209.724 L 513.507,209.03 L 512.576,208.383 L 511.58,207.736 L 510.497,207.089 L 509.349,206.505 L 508.137,205.937 L 506.859,205.416 L 505.516,204.895 L 504.152,204.438 L 502.723,203.98 L 501.229,203.585 L 499.713,203.207 L 498.154,202.875 L 496.573,202.575 L 494.949,202.323 L 493.282,202.118 L 491.636,201.928 L 489.947,201.771 L 488.258,201.676 L 486.547,201.613 L 484.815,201.597 L 484.815,201.597 L 483.104,201.613 L 481.415,201.676 L 479.683,201.771 L 478.015,201.928 L 476.326,202.118 L 474.702,202.323 L 473.078,202.575 L 471.476,202.875 L 469.917,203.207 L 468.422,203.585 L 466.928,203.98 L 465.499,204.438 L 464.113,204.895 L 462.792,205.416 L 461.515,205.937 L 460.302,206.505 L 459.154,207.089 L 458.072,207.736 L 457.054,208.383 L 456.123,209.03 L 455.235,209.724 L 454.434,210.45 L 453.741,211.145 L 453.113,211.886 L 452.528,212.644 L 452.052,213.417 L 451.705,214.19 L 451.38,214.979 L 451.164,215.784 L 451.034,216.573 L 450.991,217.378 L 450.991,217.378 L 451.034,218.167 L 451.164,218.972 L 451.38,219.761 L 451.705,220.55 L 452.052,221.323 L 452.528,222.096 L 453.113,222.87 L 453.741,223.611 L 454.434,224.322 L 455.235,225.016 L 456.123,225.71 L 457.054,226.373 L 458.072,227.036 L 459.154,227.667 L 460.302,228.251 L 461.515,228.803 L 462.792,229.34 L 464.113,229.845 L 465.499,230.318 L 466.928,230.776 L 468.422,231.17 L 469.917,231.549 L 471.476,231.865 L 473.078,232.165 L 474.702,232.417 L 476.326,232.638 L 478.015,232.843 L 479.683,232.985 L 481.415,233.08 L 483.104,233.143 L 484.815,233.143 L 484.815,233.143 L 486.547,233.143 L 488.258,233.08 L 489.947,232.985 L 491.636,232.843 L 493.282,232.638 L 494.949,232.417 L 496.573,232.165 L 498.154,231.865 L 499.713,231.549 L 501.229,231.17 L 502.723,230.776 L 504.152,230.318 L 505.516,229.845 L 506.859,229.34 L 508.137,228.803 L 509.349,228.251 L 510.497,227.667 L 511.58,227.036 L 512.576,226.373 L 513.507,225.71 L 514.395,225.016 L 515.174,224.322 L 515.911,223.611 L 516.517,222.87 L 517.102,222.096 L 517.556,221.323 L 517.946,220.55 L 518.228,219.761 L 518.466,218.972 L 518.617,218.167 L 518.639,217.378z"/>
    <path style="fill: #b6c7c9" d="M 599.821 225.537 L 599.735,224.574 L 599.561,223.611 L 599.215,222.68 L 598.76,221.749 L 598.197,220.818 L 597.504,219.919 L 596.681,219.035 L 595.729,218.135 L 594.646,217.267 L 593.477,216.431 L 592.156,215.626 L 590.77,214.837 L 589.254,214.064 L 587.652,213.322 L 585.898,212.612 L 584.122,211.949 L 582.216,211.302 L 580.224,210.703 L 578.189,210.15 L 576.023,209.63 L 573.836,209.14 L 571.562,208.714 L 569.245,208.304 L 566.842,207.957 L 564.438,207.641 L 561.969,207.389 L 559.501,207.168 L 556.946,207.01 L 554.455,206.899 L 551.879,206.805 L 549.323,206.805 L 549.323,206.805 L 546.768,206.805 L 544.213,206.899 L 541.679,207.01 L 539.167,207.168 L 536.655,207.389 L 534.209,207.641 L 531.783,207.957 L 529.423,208.304 L 527.063,208.714 L 524.832,209.14 L 522.602,209.63 L 520.48,210.15 L 518.422,210.703 L 516.452,211.302 L 514.546,211.949 L 512.727,212.612 L 511.017,213.322 L 509.414,214.064 L 507.877,214.837 L 506.469,215.626 L 505.17,216.431 L 504.022,217.267 L 502.94,218.135 L 501.987,219.035 L 501.164,219.919 L 500.449,220.818 L 499.886,221.749 L 499.41,222.68 L 499.085,223.611 L 498.89,224.574 L 498.825,225.537 L 498.825,225.537 L 498.89,226.452 L 499.085,227.415 L 499.41,228.346 L 499.886,229.293 L 500.449,230.224 L 501.164,231.123 L 501.987,232.007 L 502.94,232.906 L 504.022,233.774 L 505.17,234.611 L 506.469,235.416 L 507.877,236.236 L 509.414,236.978 L 511.017,237.72 L 512.727,238.414 L 514.546,239.108 L 516.452,239.739 L 518.422,240.339 L 520.48,240.891 L 522.602,241.428 L 524.832,241.886 L 527.063,242.328 L 529.423,242.722 L 531.783,243.069 L 534.209,243.401 L 536.655,243.637 L 539.167,243.858 L 541.679,244.032 L 544.213,244.142 L 546.768,244.237 L 549.323,244.237 L 549.323,244.237 L 551.879,244.237 L 554.455,244.142 L 556.946,244.032 L 559.501,243.858 L 561.969,243.637 L 564.438,243.401 L 566.842,243.069 L 569.245,242.722 L 571.562,242.328 L 573.836,241.886 L 576.023,241.428 L 578.189,240.891 L 580.224,240.339 L 582.216,239.739 L 584.122,239.108 L 585.898,238.414 L 587.652,237.72 L 589.254,236.978 L 590.77,236.236 L 592.156,235.416 L 593.477,234.611 L 594.646,233.774 L 595.729,232.906 L 596.681,232.007 L 597.504,231.123 L 598.197,230.224 L 598.76,229.293 L 599.215,228.346 L 599.561,227.415 L 599.735,226.452 L 599.821,225.537z"/>
    <path style="fill: #b6c7c9" d="M 627.842 182.344 L 627.82,181.65 L 627.691,180.924 L 627.452,180.214 L 627.193,179.52 L 626.803,178.841 L 626.37,178.147 L 625.828,177.468 L 625.2,176.805 L 624.529,176.174 L 623.793,175.527 L 622.948,174.912 L 622.039,174.312 L 621.086,173.76 L 620.025,173.191 L 618.942,172.671 L 617.751,172.182 L 616.539,171.677 L 615.283,171.235 L 613.94,170.824 L 612.576,170.43 L 611.19,170.067 L 609.717,169.735 L 608.223,169.436 L 606.707,169.167 L 605.148,168.931 L 603.589,168.773 L 601.987,168.583 L 600.384,168.457 L 598.739,168.378 L 597.115,168.331 L 595.469,168.299 L 595.469,168.299 L 593.801,168.331 L 592.177,168.378 L 590.532,168.457 L 588.929,168.583 L 587.348,168.773 L 585.768,168.931 L 584.23,169.167 L 582.693,169.436 L 581.199,169.735 L 579.726,170.067 L 578.319,170.43 L 576.976,170.824 L 575.633,171.235 L 574.377,171.677 L 573.165,172.182 L 571.995,172.671 L 570.891,173.191 L 569.83,173.76 L 568.877,174.312 L 567.989,174.912 L 567.123,175.527 L 566.387,176.174 L 565.716,176.805 L 565.088,177.468 L 564.546,178.147 L 564.113,178.841 L 563.745,179.52 L 563.442,180.214 L 563.247,180.924 L 563.139,181.65 L 563.074,182.344 L 563.074,182.344 L 563.139,183.055 L 563.247,183.765 L 563.442,184.459 L 563.745,185.169 L 564.113,185.864 L 564.546,186.542 L 565.088,187.221 L 565.716,187.883 L 566.387,188.546 L 567.123,189.162 L 567.989,189.761 L 568.877,190.377 L 569.83,190.945 L 570.891,191.482 L 571.995,192.018 L 573.165,192.523 L 574.377,192.996 L 575.633,193.438 L 576.976,193.88 L 578.319,194.275 L 579.726,194.622 L 581.199,194.969 L 582.693,195.253 L 584.23,195.506 L 585.768,195.758 L 587.348,195.948 L 588.929,196.105 L 590.532,196.247 L 592.177,196.31 L 593.801,196.389 L 595.469,196.389 L 595.469,196.389 L 597.115,196.389 L 598.739,196.31 L 600.384,196.247 L 601.987,196.105 L 603.589,195.948 L 605.148,195.758 L 606.707,195.506 L 608.223,195.253 L 609.717,194.969 L 611.19,194.622 L 612.576,194.275 L 613.94,193.88 L 615.283,193.438 L 616.539,192.996 L 617.751,192.523 L 618.942,192.018 L 620.025,191.482 L 621.086,190.945 L 622.039,190.377 L 622.948,189.761 L 623.793,189.162 L 624.529,188.546 L 625.2,187.883 L 625.828,187.221 L 626.37,186.542 L 626.803,185.864 L 627.193,185.169 L 627.452,184.459 L 627.691,183.765 L 627.82,183.055 L 627.842,182.344z"/>
    <path style="fill: #b6c7c9" d="M 637.024 200.382 L 636.959,199.672 L 636.872,198.962 L 636.655,198.267 L 636.374,197.573 L 635.984,196.863 L 635.551,196.2 L 635.031,195.506 L 634.403,194.859 L 633.732,194.196 L 632.996,193.58 L 632.151,192.949 L 631.242,192.365 L 630.311,191.813 L 629.25,191.229 L 628.167,190.724 L 627.041,190.203 L 625.828,189.73 L 624.529,189.288 L 623.251,188.862 L 621.887,188.467 L 620.501,188.104 L 619.05,187.773 L 617.578,187.489 L 616.062,187.221 L 614.503,186.984 L 612.944,186.795 L 611.363,186.637 L 609.739,186.495 L 608.137,186.432 L 606.513,186.384 L 604.888,186.353 L 604.888,186.353 L 603.243,186.384 L 601.64,186.432 L 600.016,186.495 L 598.435,186.637 L 596.855,186.795 L 595.274,186.984 L 593.736,187.221 L 592.242,187.489 L 590.748,187.773 L 589.297,188.104 L 587.911,188.467 L 586.547,188.862 L 585.226,189.288 L 583.992,189.73 L 582.779,190.203 L 581.588,190.724 L 580.506,191.229 L 579.488,191.813 L 578.557,192.365 L 577.647,192.949 L 576.824,193.58 L 576.045,194.196 L 575.374,194.859 L 574.789,195.506 L 574.248,196.2 L 573.771,196.863 L 573.425,197.573 L 573.143,198.267 L 572.927,198.962 L 572.797,199.672 L 572.775,200.382 L 572.775,200.382 L 572.797,201.092 L 572.927,201.818 L 573.143,202.512 L 573.425,203.207 L 573.771,203.901 L 574.248,204.58 L 574.789,205.274 L 575.374,205.921 L 576.045,206.552 L 576.824,207.199 L 577.647,207.799 L 578.557,208.399 L 579.488,208.967 L 580.506,209.519 L 581.588,210.056 L 582.779,210.545 L 583.992,211.034 L 585.226,211.476 L 586.547,211.886 L 587.911,212.281 L 589.297,212.644 L 590.748,212.975 L 592.242,213.275 L 593.736,213.559 L 595.274,213.796 L 596.855,213.954 L 598.435,214.143 L 600.016,214.253 L 601.64,214.348 L 603.243,214.395 L 604.888,214.411 L 604.888,214.411 L 606.513,214.395 L 608.137,214.348 L 609.739,214.253 L 611.363,214.143 L 612.944,213.954 L 614.503,213.796 L 616.062,213.559 L 617.578,213.275 L 619.05,212.975 L 620.501,212.644 L 621.887,212.281 L 623.251,211.886 L 624.529,211.476 L 625.828,211.034 L 627.041,210.545 L 628.167,210.056 L 629.25,209.519 L 630.311,208.967 L 631.242,208.399 L 632.151,207.799 L 632.996,207.199 L 633.732,206.552 L 634.403,205.921 L 635.031,205.274 L 635.551,204.58 L 635.984,203.901 L 636.374,203.207 L 636.655,202.512 L 636.872,201.818 L 636.959,201.092 L 637.024,200.382z"/>
    <path style="fill: #b6c7c9" d="M 630.744 215.295 L 630.701,214.143 L 630.571,212.959 L 630.397,211.823 L 630.116,210.655 L 629.748,209.519 L 629.293,208.399 L 628.773,207.294 L 628.145,206.205 L 627.474,205.148 L 626.759,204.106 L 625.937,203.096 L 625.027,202.134 L 624.074,201.187 L 623.035,200.287 L 621.952,199.419 L 620.826,198.583 L 619.613,197.794 L 618.379,197.084 L 617.058,196.389 L 615.716,195.758 L 614.33,195.158 L 612.922,194.622 L 611.45,194.117 L 609.956,193.675 L 608.396,193.296 L 606.859,192.996 L 605.257,192.712 L 603.676,192.507 L 602.095,192.365 L 600.493,192.271 L 598.869,192.255 L 598.869,192.255 L 597.244,192.271 L 595.642,192.365 L 594.018,192.507 L 592.437,192.712 L 590.878,192.996 L 589.297,193.296 L 587.782,193.675 L 586.287,194.117 L 584.815,194.622 L 583.364,195.158 L 581.978,195.758 L 580.636,196.389 L 579.358,197.084 L 578.08,197.794 L 576.889,198.583 L 575.742,199.419 L 574.659,200.287 L 573.641,201.187 L 572.667,202.134 L 571.801,203.096 L 570.978,204.106 L 570.22,205.148 L 569.549,206.205 L 568.964,207.294 L 568.444,208.399 L 567.989,209.519 L 567.621,210.655 L 567.34,211.823 L 567.123,212.959 L 566.993,214.143 L 566.95,215.295 L 566.95,215.295 L 566.993,216.463 L 567.123,217.646 L 567.34,218.782 L 567.621,219.934 L 567.989,221.102 L 568.444,222.207 L 568.964,223.296 L 569.549,224.4 L 570.22,225.442 L 570.978,226.484 L 571.801,227.509 L 572.667,228.472 L 573.641,229.403 L 574.659,230.318 L 575.742,231.186 L 576.889,232.007 L 578.08,232.796 L 579.358,233.538 L 580.636,234.216 L 581.978,234.863 L 583.364,235.447 L 584.815,235.999 L 586.287,236.489 L 587.782,236.93 L 589.297,237.293 L 590.878,237.625 L 592.437,237.877 L 594.018,238.082 L 595.642,238.225 L 597.244,238.319 L 598.869,238.367 L 598.869,238.367 L 600.493,238.319 L 602.095,238.225 L 603.676,238.082 L 605.257,237.877 L 606.859,237.625 L 608.396,237.293 L 609.956,236.93 L 611.45,236.489 L 612.922,235.999 L 614.33,235.447 L 615.716,234.863 L 617.058,234.216 L 618.379,233.538 L 619.613,232.796 L 620.826,232.007 L 621.952,231.186 L 623.035,230.318 L 624.074,229.403 L 625.027,228.472 L 625.937,227.509 L 626.759,226.484 L 627.474,225.442 L 628.145,224.4 L 628.773,223.296 L 629.293,222.207 L 629.748,221.102 L 630.116,219.934 L 630.397,218.782 L 630.571,217.646 L 630.701,216.463 L 630.744,215.295z"/>
    <path style="fill: #b6c7c9" d="M 603.199 201.423 L 603.113,200.24 L 602.853,199.104 L 602.442,197.92 L 601.879,196.784 L 601.142,195.648 L 600.233,194.511 L 599.172,193.407 L 597.937,192.318 L 596.595,191.261 L 595.079,190.235 L 593.39,189.209 L 591.593,188.231 L 589.644,187.315 L 587.565,186.4 L 585.356,185.516 L 583.061,184.696 L 580.614,183.922 L 578.059,183.181 L 575.439,182.486 L 572.688,181.839 L 569.852,181.256 L 566.95,180.703 L 563.983,180.214 L 560.952,179.788 L 557.833,179.425 L 554.672,179.094 L 551.489,178.841 L 548.262,178.636 L 545.014,178.462 L 541.744,178.383 L 538.431,178.352 L 538.431,178.352 L 535.161,178.383 L 531.892,178.462 L 528.643,178.636 L 525.395,178.841 L 522.212,179.094 L 519.05,179.425 L 515.954,179.788 L 512.922,180.214 L 509.912,180.703 L 507.054,181.256 L 504.217,181.839 L 501.445,182.486 L 498.804,183.181 L 496.292,183.922 L 493.823,184.696 L 491.506,185.516 L 489.341,186.4 L 487.24,187.315 L 485.291,188.231 L 483.516,189.209 L 481.827,190.235 L 480.332,191.261 L 478.968,192.318 L 477.712,193.407 L 476.673,194.511 L 475.785,195.648 L 475.005,196.784 L 474.442,197.92 L 474.031,199.104 L 473.771,200.24 L 473.706,201.423 L 473.706,201.423 L 473.771,202.575 L 474.031,203.743 L 474.442,204.895 L 475.005,206.063 L 475.785,207.199 L 476.673,208.32 L 477.712,209.409 L 478.968,210.513 L 480.332,211.586 L 481.827,212.612 L 483.516,213.606 L 485.291,214.585 L 487.24,215.532 L 489.341,216.431 L 491.506,217.299 L 493.823,218.135 L 496.292,218.924 L 498.804,219.666 L 501.445,220.361 L 504.217,220.976 L 507.054,221.591 L 509.912,222.112 L 512.922,222.601 L 515.954,223.043 L 519.05,223.422 L 522.212,223.738 L 525.395,224.006 L 528.643,224.211 L 531.892,224.353 L 535.161,224.464 L 538.431,224.479 L 538.431,224.479 L 541.744,224.464 L 545.014,224.353 L 548.262,224.211 L 551.489,224.006 L 554.672,223.738 L 557.833,223.422 L 560.952,223.043 L 563.983,222.601 L 566.95,222.112 L 569.852,221.591 L 572.688,220.976 L 575.439,220.361 L 578.059,219.666 L 580.614,218.924 L 583.061,218.135 L 585.356,217.299 L 587.565,216.431 L 589.644,215.532 L 591.593,214.585 L 593.39,213.606 L 595.079,212.612 L 596.595,211.586 L 597.937,210.513 L 599.172,209.409 L 600.233,208.32 L 601.142,207.199 L 601.879,206.063 L 602.442,204.895 L 602.853,203.743 L 603.113,202.575 L 603.199,201.423z"/>
    <path style="fill: #b6c7c9" d="M 549.583 175.59 L 592.437,171.613 L 591.896,170.745 L 591.225,169.862 L 590.488,168.994 L 589.6,168.157 L 588.648,167.353 L 587.565,166.532 L 586.439,165.759 L 585.14,165.017 L 583.819,164.291 L 582.39,163.597 L 580.852,162.934 L 579.25,162.318 L 577.561,161.719 L 575.807,161.135 L 573.988,160.614 L 572.104,160.141 L 570.198,159.667 L 568.184,159.273 L 566.149,158.91 L 564.092,158.578 L 561.948,158.294 L 559.804,158.073 L 557.639,157.868 L 555.451,157.726 L 553.243,157.632 L 551.012,157.584 L 548.804,157.584 L 546.573,157.632 L 544.343,157.695 L 542.177,157.821 L 539.99,158.026 L 537.825,158.231 L 535.681,158.515 L 533.581,158.815 L 531.545,159.162 L 529.553,159.557 L 527.582,159.999 L 525.677,160.456 L 523.879,160.977 L 522.104,161.529 L 520.393,162.113 L 518.769,162.729 L 517.231,163.392 L 515.781,164.086 L 514.395,164.796 L 513.095,165.538 L 511.883,166.311 L 510.778,167.1 L 509.826,167.936 L 508.895,168.741 L 508.093,169.609 L 507.422,170.461 L 506.859,171.345 L 506.383,172.229 L 549.583,175.59z"/>
    <path style="fill: none; fill-opacity:0; stroke-width: 0.02; stroke: #6c8f93" d="M 592.437 171.582 L 591.874,170.698 L 591.225,169.83 L 590.467,168.962 L 589.6,168.142 L 588.604,167.321 L 587.543,166.516 L 586.396,165.743 L 585.096,165.001 L 583.754,164.291 L 582.368,163.597 L 580.809,162.902 L 579.25,162.287 L 577.539,161.687 L 575.785,161.135 L 573.988,160.583 L 572.104,160.109 L 570.176,159.667 L 568.163,159.257 L 566.127,158.91 L 564.092,158.578 L 561.948,158.294 L 559.782,158.073 L 557.617,157.868 L 555.43,157.726 L 553.243,157.632 L 550.991,157.584 L 548.782,157.584 L 546.573,157.632 L 544.364,157.695 L 542.156,157.821 L 539.99,158.026 L 537.825,158.215 L 535.703,158.484 L 533.624,158.815 L 531.545,159.162 L 529.574,159.557 L 527.604,159.999 L 525.72,160.456 L 523.879,160.961 L 522.125,161.529 L 520.415,162.113 L 518.791,162.713 L 517.253,163.376 L 515.781,164.054 L 514.395,164.78 L 513.095,165.522 L 511.926,166.279 L 510.8,167.1 L 509.826,167.889 L 508.916,168.726 L 508.137,169.562 L 507.422,170.43 L 506.859,171.314 L 506.404,172.197"/>
    <path style="fill: #b6c7c9" d="M 491.311 184.948 L 512.922,171.14 L 511.58,170.572 L 510.172,170.035 L 508.743,169.562 L 507.27,169.088 L 505.776,168.678 L 504.217,168.299 L 502.615,167.984 L 501.034,167.684 L 499.367,167.447 L 497.721,167.242 L 496.032,167.1 L 494.343,166.99 L 492.654,166.926 L 490.965,166.926 L 489.254,166.958 L 487.565,167.053 L 485.876,167.163 L 484.209,167.337 L 482.563,167.558 L 480.939,167.81 L 479.315,168.11 L 477.756,168.457 L 476.196,168.852 L 474.702,169.278 L 473.251,169.751 L 471.866,170.272 L 470.48,170.824 L 469.18,171.392 L 467.946,172.024 L 466.733,172.671 L 465.607,173.365 L 464.568,174.059 L 463.572,174.817 L 462.662,175.574 L 461.796,176.363 L 461.038,177.184 L 460.324,178.02 L 459.717,178.857 L 459.176,179.725 L 458.743,180.609 L 458.396,181.492 L 458.093,182.408 L 457.877,183.323 L 457.79,184.222 L 457.747,185.122 L 457.812,186.037 L 457.942,186.968 L 458.202,187.852 L 491.311,184.948z"/>
    <path style="fill: none; fill-opacity:0; stroke-width: 0.02; stroke: #6c8f93" d="M 512.814 171.093 L 511.471,170.525 L 510.107,170.004 L 508.678,169.515 L 507.184,169.073 L 505.646,168.647 L 504.109,168.284 L 502.528,167.952 L 500.904,167.668 L 499.28,167.447 L 497.591,167.242 L 495.924,167.1 L 494.256,166.99 L 492.567,166.926 L 490.835,166.926 L 489.189,166.958 L 487.5,167.053 L 485.768,167.163 L 484.122,167.353 L 482.498,167.558 L 480.83,167.842 L 479.25,168.126 L 477.691,168.489 L 476.153,168.883 L 474.637,169.309 L 473.186,169.783 L 471.801,170.304 L 470.458,170.84 L 469.159,171.44 L 467.881,172.039 L 466.733,172.718 L 465.586,173.381 L 464.525,174.107 L 463.55,174.833 L 462.619,175.59 L 461.796,176.395 L 461.038,177.216 L 460.324,178.052 L 459.696,178.888 L 459.176,179.772 L 458.743,180.624 L 458.353,181.524 L 458.093,182.439 L 457.877,183.339 L 457.79,184.238 L 457.747,185.153 L 457.855,186.053 L 457.985,186.968 L 458.202,187.883"/>
    <path style="fill: #b6c7c9" d="M 485.291 217.204 L 450.514,216.715 L 450.514,217.552 L 450.579,218.341 L 450.752,219.177 L 451.034,219.966 L 451.359,220.771 L 451.77,221.591 L 452.312,222.349 L 452.875,223.122 L 453.589,223.88 L 454.347,224.606 L 455.148,225.347 L 456.101,226.042 L 457.054,226.72 L 458.137,227.367 L 459.241,227.998 L 460.432,228.598 L 461.71,229.15 L 463.009,229.687 L 464.373,230.224 L 465.802,230.681 L 467.275,231.123 L 468.812,231.549 L 470.371,231.896 L 471.93,232.244 L 473.576,232.543 L 475.244,232.796 L 476.933,233.001 L 478.643,233.19 L 480.354,233.332 L 482.086,233.427 L 483.84,233.474 L 485.616,233.474 L 487.327,233.443 L 489.081,233.38 L 490.813,233.285 L 492.524,233.143 L 494.256,232.938 L 495.902,232.701 L 497.591,232.449 L 499.172,232.117 L 500.774,231.802 L 502.333,231.407 L 503.806,230.981 L 505.3,230.523 L 506.664,230.034 L 508.028,229.529 L 485.291,217.204z"/>
    <path style="fill: none; fill-opacity:0; stroke-width: 0.02; stroke: #6c8f93" d="M 450.558 216.715 L 450.493,217.52 L 450.623,218.341 L 450.752,219.145 L 451.034,219.966 L 451.359,220.755 L 451.792,221.56 L 452.312,222.349 L 452.918,223.122 L 453.589,223.864 L 454.304,224.606 L 455.148,225.316 L 456.036,226.026 L 457.054,226.689 L 458.093,227.367 L 459.219,227.967 L 460.389,228.567 L 461.645,229.15 L 462.944,229.687 L 464.308,230.192 L 465.737,230.665 L 467.21,231.107 L 468.704,231.518 L 470.263,231.896 L 471.887,232.244 L 473.49,232.512 L 475.135,232.764 L 476.824,233.001 L 478.557,233.159 L 480.267,233.332 L 481.978,233.396 L 483.732,233.474 L 485.486,233.474 L 487.218,233.474 L 488.951,233.396 L 490.683,233.285 L 492.394,233.143 L 494.126,232.954 L 495.772,232.733 L 497.461,232.464 L 499.063,232.149 L 500.623,231.802 L 502.182,231.423 L 503.676,231.013 L 505.17,230.571 L 506.578,230.082 L 507.898,229.577"/>
    <path style="fill: #b6c7c9" d="M 595.945 182.013 L 626.543,186.574 L 627.063,185.895 L 627.452,185.217 L 627.82,184.522 L 628.037,183.812 L 628.254,183.102 L 628.297,182.392 L 628.297,181.666 L 628.254,180.971 L 628.08,180.261 L 627.842,179.551 L 627.496,178.857 L 627.084,178.162 L 626.608,177.5 L 626.045,176.821 L 625.395,176.174 L 624.659,175.527 L 623.836,174.896 L 622.992,174.296 L 622.06,173.712 L 621.064,173.16 L 620.003,172.592 L 618.834,172.087 L 617.665,171.598 L 616.387,171.14 L 615.109,170.698 L 613.767,170.304 L 612.381,169.909 L 610.93,169.562 L 609.458,169.246 L 607.942,168.962 L 606.383,168.726 L 604.845,168.52 L 603.221,168.331 L 601.619,168.189 L 599.995,168.078 L 598.349,168.031 L 596.725,167.984 L 595.101,167.984 L 593.455,168.031 L 591.809,168.094 L 590.207,168.205 L 588.583,168.347 L 586.98,168.52 L 585.4,168.741 L 595.945,182.013z"/>
    <path style="fill: none; fill-opacity:0; stroke-width: 0.02; stroke: #6c8f93" d="M 623.728 189.146 L 626.521,186.605 L 627.041,185.942 L 627.452,185.248 L 627.777,184.554 L 628.037,183.844 L 628.21,183.133 L 628.275,182.439 L 628.297,181.697 L 628.232,181.003 L 628.08,180.293 L 627.842,179.583 L 627.496,178.888 L 627.084,178.194 L 626.629,177.515 L 626.066,176.868 L 625.395,176.19 L 624.659,175.543 L 623.901,174.912 L 623.013,174.312 L 622.082,173.728 L 621.086,173.16 L 620.025,172.623 L 618.899,172.118 L 617.708,171.613 L 616.474,171.14 L 615.153,170.714 L 613.81,170.304 L 612.424,169.925 L 610.973,169.609 L 609.501,169.278 L 608.007,168.978 L 606.469,168.726 L 604.888,168.52 L 603.329,168.331 L 601.727,168.189 L 600.103,168.094 L 598.457,168.031 L 596.811,167.984 L 595.144,167.984 L 593.52,168.031 L 591.874,168.094 L 590.25,168.189 L 588.648,168.331 L 587.067,168.505 L 585.486,168.726"/>
    <path style="fill: #b6c7c9" d="M 600.298 200.556 L 634.75,206.331 L 635.443,205.574 L 636.006,204.832 L 636.526,204.043 L 636.937,203.254 L 637.218,202.465 L 637.413,201.676 L 637.478,200.855 L 637.478,200.051 L 637.348,199.246 L 637.154,198.457 L 636.807,197.652 L 636.396,196.879 L 635.854,196.105 L 635.27,195.332 L 634.533,194.59 L 633.71,193.88 L 632.823,193.154 L 631.805,192.444 L 630.722,191.781 L 600.298,200.556z"/>
    <path style="fill: none; fill-opacity:0; stroke-width: 0.02; stroke: #6c8f93" d="M 630.376 208.951 L 634.707,206.363 L 635.356,205.621 L 636.006,204.832 L 636.504,204.059 L 636.915,203.254 L 637.197,202.465 L 637.413,201.676 L 637.5,200.855 L 637.478,200.051 L 637.348,199.23 L 637.11,198.441 L 636.807,197.652 L 636.396,196.863 L 635.854,196.074 L 635.248,195.301 L 634.49,194.543 L 633.689,193.833 L 632.736,193.107 L 631.762,192.413 L 630.657,191.75 L 623.728,189.146"/>
    <path style="fill: #b6c7c9" d="M 598.847 215.8 L 587.976,237.72 L 589.579,238.067 L 591.203,238.382 L 592.827,238.619 L 594.516,238.808 L 596.162,238.95 L 597.807,239.014 L 599.518,239.014 L 601.186,238.95 L 602.831,238.856 L 604.499,238.666 L 606.123,238.43 L 607.747,238.161 L 609.349,237.814 L 610.93,237.388 L 612.446,236.93 L 613.962,236.41 L 615.434,235.842 L 616.863,235.21 L 618.249,234.563 L 619.57,233.822 L 620.826,233.048 L 622.039,232.244 L 623.208,231.376 L 624.312,230.476 L 625.309,229.545 L 626.261,228.567 L 627.171,227.572 L 627.972,226.531 L 628.687,225.489 L 629.358,224.4 L 629.921,223.28 L 630.441,222.144 L 630.852,221.008 L 631.199,219.84 L 631.415,218.688 L 631.61,217.504 L 631.653,216.321 L 631.653,215.137 L 631.567,213.954 L 631.393,212.77 L 631.134,211.602 L 630.809,210.45 L 630.376,209.314 L 598.847,215.8z"/>
    <path style="fill: none; fill-opacity:0; stroke-width: 0.02; stroke: #6c8f93" d="M 588.063 237.735 L 589.687,238.114 L 591.29,238.414 L 592.935,238.666 L 594.581,238.824 L 596.27,238.95 L 597.916,239.014 L 599.583,239.045 L 601.251,238.95 L 602.94,238.856 L 604.585,238.666 L 606.209,238.43 L 607.833,238.13 L 609.436,237.783 L 610.995,237.372 L 612.554,236.899 L 614.048,236.394 L 615.499,235.842 L 616.907,235.21 L 618.293,234.516 L 619.613,233.79 L 620.869,233.001 L 622.082,232.196 L 623.251,231.36 L 624.334,230.445 L 625.374,229.498 L 626.283,228.551 L 627.193,227.525 L 627.994,226.484 L 628.708,225.442 L 629.358,224.353 L 629.943,223.217 L 630.462,222.096 L 630.852,220.944 L 631.199,219.792 L 631.458,218.64 L 631.61,217.457 L 631.653,216.273 L 631.653,215.09 L 631.545,213.906 L 631.393,212.723 L 631.112,211.555 L 630.744,210.403 L 630.376,209.267"/>
    <path style="fill: #b6c7c9" d="M 461.125 203.349 L 459.479,188.467 L 458.267,188.546 L 457.119,188.641 L 455.906,188.799 L 454.737,188.988 L 453.589,189.209 L 452.463,189.493 L 451.359,189.761 L 450.276,190.124 L 449.193,190.472 L 448.176,190.866 L 447.18,191.308 L 446.227,191.766 L 445.296,192.255 L 444.451,192.791 L 443.607,193.328 L 442.827,193.896 L 442.091,194.496 L 441.419,195.127 L 440.748,195.758 L 440.163,196.437 L 439.665,197.131 L 439.189,197.825 L 438.734,198.52 L 438.388,199.246 L 438.106,199.987 L 437.846,200.729 L 437.652,201.487 L 437.565,202.26 L 437.5,203.002 L 437.5,203.759 L 437.565,204.501 L 437.695,205.274 L 437.89,206.016 L 438.106,206.757 L 438.431,207.499 L 438.778,208.225 L 439.211,208.935 L 439.687,209.63 L 440.228,210.308 L 440.813,210.987 L 441.484,211.602 L 442.156,212.233 L 442.914,212.833 L 443.715,213.401 L 444.538,213.954 L 445.426,214.458 L 446.357,214.948 L 447.309,215.421 L 448.327,215.847 L 449.323,216.242 L 450.406,216.605 L 461.125,203.349z"/>
    <path style="fill: none; fill-opacity:0; stroke-width: 0.02; stroke: #6c8f93" d="M 459.479 188.467 L 458.332,188.546 L 457.141,188.641 L 455.971,188.799 L 454.845,188.972 L 453.697,189.193 L 452.571,189.43 L 451.489,189.73 L 450.428,190.045 L 449.367,190.393 L 448.392,190.787 L 447.374,191.213 L 446.443,191.655 L 445.534,192.129 L 444.668,192.649 L 443.801,193.186 L 443.044,193.722 L 442.286,194.322 L 441.614,194.922 L 440.965,195.553 L 440.402,196.2 L 439.86,196.863 L 439.341,197.526 L 438.908,198.22 L 438.518,198.93 L 438.193,199.656 L 437.955,200.382 L 437.717,201.124 L 437.587,201.865 L 437.5,202.607 L 437.5,203.349 L 437.5,204.09 L 437.63,204.832 L 437.76,205.574 L 437.955,206.316 L 438.236,207.041 L 438.518,207.752 L 438.908,208.446 L 439.384,209.172 L 439.86,209.85 L 440.402,210.497 L 441.008,211.145 L 441.636,211.776 L 442.307,212.375 L 443.044,212.959 L 443.845,213.512 L 444.689,214.048 L 445.555,214.553 L 446.487,215.027 L 447.396,215.484 L 448.392,215.895 L 449.41,216.273 L 450.449,216.636"/>
    <path style="fill: #b6c7c9" d="M 548.847 227.241 L 499.561,228.961 L 499.886,229.829 L 500.298,230.713 L 500.861,231.565 L 501.575,232.401 L 502.333,233.206 L 503.264,234.027 L 504.282,234.816 L 505.43,235.605 L 506.707,236.347 L 508.072,237.088 L 509.501,237.783 L 511.082,238.461 L 512.727,239.108 L 514.481,239.739 L 516.322,240.308 L 518.228,240.876 L 520.263,241.381 L 522.299,241.886 L 524.442,242.328 L 526.629,242.754 L 528.925,243.101 L 531.22,243.448 L 533.537,243.732 L 535.963,243.985 L 538.388,244.19 L 540.835,244.347 L 543.26,244.474 L 545.75,244.537 L 548.262,244.584 L 550.731,244.584 L 553.243,244.521 L 555.711,244.426 L 558.158,244.284 L 560.584,244.079 L 563.009,243.858 L 565.348,243.59 L 567.686,243.259 L 569.96,242.943 L 572.212,242.548 L 574.377,242.107 L 576.456,241.633 L 578.492,241.128 L 580.462,240.576 L 582.346,240.008 L 584.144,239.408 L 585.811,238.777 L 587.435,238.114 L 588.929,237.42 L 590.358,236.694 L 591.679,235.952 L 592.849,235.21 L 593.931,234.421 L 594.927,233.601 L 595.772,232.796 L 548.847,227.241z"/>
    <path style="fill: none; fill-opacity:0; stroke-width: 0.02; stroke: #6c8f93" d="M 499.605 228.993 L 499.886,229.845 L 500.319,230.713 L 500.861,231.565 L 501.575,232.401 L 502.377,233.238 L 503.264,234.027 L 504.304,234.816 L 505.43,235.605 L 506.707,236.347 L 508.072,237.088 L 509.501,237.783 L 511.082,238.461 L 512.771,239.108 L 514.481,239.739 L 516.322,240.308 L 518.228,240.876 L 520.263,241.381 L 522.299,241.87 L 524.442,242.328 L 526.629,242.754 L 528.882,243.101 L 531.177,243.448 L 533.516,243.732 L 535.941,243.985 L 538.345,244.19 L 540.791,244.332 L 543.238,244.474 L 545.707,244.537 L 548.197,244.584 L 550.688,244.568 L 553.156,244.521 L 555.625,244.395 L 558.115,244.284 L 560.54,244.079 L 562.922,243.842 L 565.304,243.59 L 567.621,243.29 L 569.895,242.943 L 572.125,242.548 L 574.269,242.107 L 576.391,241.633 L 578.427,241.144 L 580.376,240.623 L 582.26,240.039 L 584.035,239.44 L 585.768,238.808 L 587.37,238.114 L 588.886,237.435 L 590.315,236.71 L 591.593,235.999 L 592.805,235.21 L 593.888,234.437 L 594.841,233.632 L 595.729,232.812"/>
  </g>
  <g>
    <rect style="fill: #ffff00" x="78" y="425.542" width="376" height="51.0417"/>
    <rect style="fill: none; fill-opacity:0; stroke-width: 2; stroke: #000000" x="78" y="425.542" width="376" height="51.0417"/>
  </g>
  <g>
    <path style="fill: none; fill-opacity:0; stroke-width: 2; stroke: #000000" d="M 266,476.584 A 171.814,171.814 0 0 0 384.454,572.229"/>
    <polygon style="fill: #000000" points="391.794,573.72 381.113,577.024 384.394,572.498 382.742,567.157 "/>
    <polygon style="fill: none; fill-opacity:0; stroke-width: 2; stroke: #000000" points="391.794,573.72 381.113,577.024 384.394,572.498 382.742,567.157 "/>
  </g>
  <g>
    <path style="fill: #0096d4" d="M 399.476 575.784 L 399.476,597.999 L 487.356,597.999 L 487.356,575.784 L 399.476,575.784z"/>
    <path style="fill: none; fill-opacity:0; stroke-width: 0.02; stroke: #aae6ff" d="M 399.476 575.784 L 399.476,597.999 L 487.356,597.999 L 487.356,575.784 L 399.476,575.784"/>
    <path style="fill: #005a80" d="M 487.356 575.784 L 514.57,549.61 L 514.57,571.825 L 487.356,597.999 L 487.356,575.784z"/>
    <path style="fill: none; fill-opacity:0; stroke-width: 0.02; stroke: #aae6ff" d="M 487.356 575.784 L 514.57,549.61 L 514.57,571.825 L 487.356,597.999 L 487.356,575.784"/>
    <path style="fill: #00b4ff" d="M 487.356 575.784 L 514.57,549.61 L 426.63,549.61 L 399.476,575.784 L 487.356,575.784z"/>
    <path style="fill: none; fill-opacity:0; stroke-width: 0.02; stroke: #aae6ff" d="M 487.356 575.784 L 514.57,549.61 L 426.63,549.61 L 399.476,575.784 L 487.356,575.784"/>
    <path style="fill: #000000" d="M 454.584 563.107 L 451.404,566.226 L 473.759,566.226 L 470.58,570.225 L 488.956,565.446 L 479.378,561.507 L 476.959,563.107 L 454.584,563.107z"/>
    <path style="fill: #000000" d="M 465.781 552.789 L 462.582,555.949 L 484.957,555.949 L 480.958,559.908 L 500.133,554.389 L 489.756,550.39 L 488.196,552.789 L 465.781,552.789z"/>
    <path style="fill: #000000" d="M 446.585 571.825 L 449.845,568.626 L 426.63,568.626 L 430.629,564.667 L 412.213,569.406 L 421.831,573.405 L 423.451,571.825 L 446.585,571.825z"/>
    <path style="fill: #000000" d="M 457.003 560.668 L 460.202,557.568 L 437.827,557.568 L 441.846,553.569 L 422.631,559.108 L 433.008,563.107 L 434.608,560.668 L 457.003,560.668z"/>
    <path style="fill: #ffffff" d="M 455.383 563.847 L 452.204,567.026 L 474.579,567.026 L 471.38,571.005 L 489.756,566.226 L 480.138,562.287 L 477.778,563.847 L 455.383,563.847z"/>
    <path style="fill: #ffffff" d="M 466.581 553.569 L 463.382,556.728 L 485.757,556.728 L 481.758,560.668 L 500.953,555.129 L 490.576,551.19 L 488.956,553.569 L 466.581,553.569z"/>
    <path style="fill: #ffffff" d="M 447.385 572.605 L 450.585,569.406 L 427.45,569.406 L 431.389,565.446 L 413.033,570.225 L 422.631,574.184 L 424.21,572.605 L 447.385,572.605z"/>
    <path style="fill: #ffffff" d="M 457.763 561.507 L 461.002,558.308 L 438.587,558.308 L 442.606,554.389 L 423.451,559.908 L 433.828,563.847 L 435.388,561.507 L 457.763,561.507z"/>
  </g>
  <g>
    <path style="fill: #0096d4" d="M 678.124 575.182 L 678.124,597.397 L 766.004,597.397 L 766.004,575.182 L 678.124,575.182z"/>
    <path style="fill: none; fill-opacity:0; stroke-width: 0.02; stroke: #aae6ff" d="M 678.124 575.182 L 678.124,597.397 L 766.004,597.397 L 766.004,575.182 L 678.124,575.182"/>
    <path style="fill: #005a80" d="M 766.004 575.182 L 793.218,549.008 L 793.218,571.223 L 766.004,597.397 L 766.004,575.182z"/>
    <path style="fill: none; fill-opacity:0; stroke-width: 0.02; stroke: #aae6ff" d="M 766.004 575.182 L 793.218,549.008 L 793.218,571.223 L 766.004,597.397 L 766.004,575.182"/>
    <path style="fill: #00b4ff" d="M 766.004 575.182 L 793.218,549.008 L 705.278,549.008 L 678.124,575.182 L 766.004,575.182z"/>
    <path style="fill: none; fill-opacity:0; stroke-width: 0.02; stroke: #aae6ff" d="M 766.004 575.182 L 793.218,549.008 L 705.278,549.008 L 678.124,575.182 L 766.004,575.182"/>
    <path style="fill: #000000" d="M 733.232 562.505 L 730.052,565.624 L 752.407,565.624 L 749.228,569.623 L 767.604,564.844 L 758.026,560.905 L 755.607,562.505 L 733.232,562.505z"/>
    <path style="fill: #000000" d="M 744.429 552.187 L 741.23,555.347 L 763.605,555.347 L 759.606,559.306 L 778.781,553.787 L 768.404,549.788 L 766.844,552.187 L 744.429,552.187z"/>
    <path style="fill: #000000" d="M 725.233 571.223 L 728.493,568.024 L 705.278,568.024 L 709.277,564.065 L 690.861,568.804 L 700.479,572.803 L 702.099,571.223 L 725.233,571.223z"/>
    <path style="fill: #000000" d="M 735.651 560.066 L 738.85,556.966 L 716.475,556.966 L 720.494,552.967 L 701.279,558.506 L 711.656,562.505 L 713.256,560.066 L 735.651,560.066z"/>
    <path style="fill: #ffffff" d="M 734.031 563.245 L 730.852,566.424 L 753.227,566.424 L 750.028,570.403 L 768.404,565.624 L 758.786,561.685 L 756.426,563.245 L 734.031,563.245z"/>
    <path style="fill: #ffffff" d="M 745.229 552.967 L 742.03,556.126 L 764.405,556.126 L 760.406,560.066 L 779.601,554.527 L 769.224,550.588 L 767.604,552.967 L 745.229,552.967z"/>
    <path style="fill: #ffffff" d="M 726.033 572.003 L 729.233,568.804 L 706.098,568.804 L 710.037,564.844 L 691.681,569.623 L 701.279,573.582 L 702.858,572.003 L 726.033,572.003z"/>
    <path style="fill: #ffffff" d="M 736.411 560.905 L 739.65,557.706 L 717.235,557.706 L 721.254,553.787 L 702.099,559.306 L 712.476,563.245 L 714.036,560.905 L 736.411,560.905z"/>
  </g>
  <g>
    <path style="fill: #0096d4" d="M 981.124 576.182 L 981.124,598.397 L 1069,598.397 L 1069,576.182 L 981.124,576.182z"/>
    <path style="fill: none; fill-opacity:0; stroke-width: 0.02; stroke: #aae6ff" d="M 981.124 576.182 L 981.124,598.397 L 1069,598.397 L 1069,576.182 L 981.124,576.182"/>
    <path style="fill: #005a80" d="M 1069 576.182 L 1096.22,550.008 L 1096.22,572.223 L 1069,598.397 L 1069,576.182z"/>
    <path style="fill: none; fill-opacity:0; stroke-width: 0.02; stroke: #aae6ff" d="M 1069 576.182 L 1096.22,550.008 L 1096.22,572.223 L 1069,598.397 L 1069,576.182"/>
    <path style="fill: #00b4ff" d="M 1069 576.182 L 1096.22,550.008 L 1008.28,550.008 L 981.124,576.182 L 1069,576.182z"/>
    <path style="fill: none; fill-opacity:0; stroke-width: 0.02; stroke: #aae6ff" d="M 1069 576.182 L 1096.22,550.008 L 1008.28,550.008 L 981.124,576.182 L 1069,576.182"/>
    <path style="fill: #000000" d="M 1036.23 563.505 L 1033.05,566.624 L 1055.41,566.624 L 1052.23,570.623 L 1070.6,565.844 L 1061.03,561.905 L 1058.61,563.505 L 1036.23,563.505z"/>
    <path style="fill: #000000" d="M 1047.43 553.187 L 1044.23,556.347 L 1066.6,556.347 L 1062.61,560.306 L 1081.78,554.787 L 1071.4,550.788 L 1069.84,553.187 L 1047.43,553.187z"/>
    <path style="fill: #000000" d="M 1028.23 572.223 L 1031.49,569.024 L 1008.28,569.024 L 1012.28,565.065 L 993.861,569.804 L 1003.48,573.803 L 1005.1,572.223 L 1028.23,572.223z"/>
    <path style="fill: #000000" d="M 1038.65 561.066 L 1041.85,557.966 L 1019.48,557.966 L 1023.49,553.967 L 1004.28,559.506 L 1014.66,563.505 L 1016.26,561.066 L 1038.65,561.066z"/>
    <path style="fill: #ffffff" d="M 1037.03 564.245 L 1033.85,567.424 L 1056.23,567.424 L 1053.03,571.403 L 1071.4,566.624 L 1061.79,562.685 L 1059.43,564.245 L 1037.03,564.245z"/>
    <path style="fill: #ffffff" d="M 1048.23 553.967 L 1045.03,557.126 L 1067.4,557.126 L 1063.41,561.066 L 1082.6,555.527 L 1072.22,551.588 L 1070.6,553.967 L 1048.23,553.967z"/>
    <path style="fill: #ffffff" d="M 1029.03 573.003 L 1032.23,569.804 L 1009.1,569.804 L 1013.04,565.844 L 994.681,570.623 L 1004.28,574.582 L 1005.86,573.003 L 1029.03,573.003z"/>
    <path style="fill: #ffffff" d="M 1039.41 561.905 L 1042.65,558.706 L 1020.24,558.706 L 1024.25,554.787 L 1005.1,560.306 L 1015.48,564.245 L 1017.04,561.905 L 1039.41,561.905z"/>
  </g>
  <g>
    <path style="fill: #0078aa" d="M 794.872 368.212 L 794.796,367.407 L 794.63,366.602 L 794.349,365.81 L 793.953,365.031 L 793.416,364.239 L 792.79,363.473 L 792.037,362.719 L 791.193,361.978 L 790.223,361.25 L 789.15,360.548 L 787.987,359.871 L 786.723,359.181 L 785.356,358.529 L 783.9,357.916 L 782.342,357.329 L 780.707,356.767 L 779.008,356.217 L 777.219,355.719 L 775.367,355.247 L 773.439,354.8 L 771.446,354.391 L 769.389,354.046 L 767.295,353.688 L 765.174,353.407 L 762.99,353.139 L 760.767,352.935 L 758.519,352.743 L 756.246,352.615 L 753.972,352.488 L 751.673,352.449 L 749.373,352.411 L 749.373,352.411 L 747.062,352.449 L 744.762,352.488 L 742.489,352.615 L 740.215,352.743 L 737.967,352.935 L 735.744,353.139 L 733.56,353.407 L 731.427,353.688 L 729.332,354.046 L 727.288,354.391 L 725.296,354.8 L 723.367,355.247 L 721.515,355.719 L 719.727,356.217 L 718.015,356.767 L 716.393,357.329 L 714.834,357.916 L 713.378,358.529 L 712.011,359.181 L 710.747,359.871 L 709.584,360.548 L 708.512,361.25 L 707.541,361.978 L 706.698,362.719 L 705.944,363.473 L 705.318,364.239 L 704.782,365.031 L 704.373,365.81 L 704.079,366.602 L 703.926,367.407 L 703.862,368.212 L 703.862,368.212 L 703.926,369.004 L 704.079,369.808 L 704.373,370.6 L 704.782,371.379 L 705.318,372.171 L 705.944,372.938 L 706.698,373.691 L 707.541,374.432 L 708.512,375.16 L 709.584,375.863 L 710.747,376.565 L 712.011,377.23 L 713.378,377.881 L 714.834,378.494 L 716.393,379.107 L 718.015,379.669 L 719.727,380.193 L 721.515,380.704 L 723.367,381.164 L 725.296,381.611 L 727.288,382.02 L 729.332,382.39 L 731.427,382.722 L 733.56,383.029 L 735.744,383.271 L 737.967,383.501 L 740.215,383.667 L 742.489,383.821 L 744.762,383.923 L 747.062,383.987 L 749.373,384 L 749.373,384 L 751.673,383.987 L 753.972,383.923 L 756.246,383.821 L 758.519,383.667 L 760.767,383.501 L 762.99,383.271 L 765.174,383.029 L 767.295,382.722 L 769.389,382.39 L 771.446,382.02 L 773.439,381.611 L 775.367,381.164 L 777.219,380.704 L 779.008,380.193 L 780.707,379.669 L 782.342,379.107 L 783.9,378.494 L 785.356,377.881 L 786.723,377.23 L 787.987,376.565 L 789.15,375.863 L 790.223,375.16 L 791.193,374.432 L 792.037,373.691 L 792.79,372.938 L 793.416,372.171 L 793.953,371.379 L 794.349,370.6 L 794.63,369.808 L 794.796,369.004 L 794.872,368.212z"/>
    <path style="fill: none; fill-opacity:0; stroke-width: 0.02; stroke: #aae6ff" d="M 794.336 367.956 L 794.272,367.151 L 794.119,366.385 L 793.825,365.593 L 793.429,364.827 L 792.905,364.06 L 792.241,363.307 L 791.551,362.579 L 790.683,361.838 L 789.725,361.122 L 788.664,360.407 L 787.489,359.743 L 786.237,359.079 L 784.883,358.44 L 783.44,357.827 L 781.907,357.239 L 780.272,356.703 L 778.561,356.192 L 776.798,355.668 L 774.959,355.234 L 773.043,354.774 L 771.05,354.378 L 769.032,354.02 L 766.962,353.688 L 764.829,353.407 L 762.671,353.139 L 760.448,352.935 L 758.225,352.743 L 755.965,352.615 L 753.691,352.526 L 751.404,352.449 L 749.118,352.449 L 749.118,352.449 L 746.806,352.449 L 744.532,352.526 L 742.246,352.615 L 740.011,352.743 L 737.775,352.935 L 735.565,353.139 L 733.394,353.407 L 731.261,353.688 L 729.179,354.02 L 727.161,354.378 L 725.168,354.774 L 723.252,355.234 L 721.425,355.668 L 719.65,356.192 L 717.938,356.703 L 716.316,357.239 L 714.796,357.827 L 713.353,358.44 L 711.986,359.079 L 710.709,359.743 L 709.572,360.407 L 708.499,361.122 L 707.541,361.838 L 706.698,362.579 L 705.957,363.307 L 705.318,364.06 L 704.807,364.827 L 704.398,365.593 L 704.105,366.385 L 703.939,367.151 L 703.875,367.956 L 703.875,367.956 L 703.939,368.735 L 704.105,369.54 L 704.398,370.294 L 704.807,371.073 L 705.318,371.852 L 705.957,372.593 L 706.698,373.334 L 707.541,374.075 L 708.499,374.777 L 709.572,375.492 L 710.709,376.169 L 711.986,376.808 L 713.353,377.46 L 714.796,378.085 L 716.316,378.648 L 717.938,379.197 L 719.65,379.72 L 721.425,380.231 L 723.252,380.678 L 725.168,381.113 L 727.161,381.522 L 729.179,381.879 L 731.261,382.198 L 733.394,382.505 L 735.565,382.761 L 737.775,382.965 L 740.011,383.144 L 742.246,383.271 L 744.532,383.386 L 746.806,383.45 L 749.118,383.463 L 749.118,383.463 L 751.404,383.45 L 753.691,383.386 L 755.965,383.271 L 758.225,383.144 L 760.448,382.965 L 762.671,382.761 L 764.829,382.505 L 766.962,382.198 L 769.032,381.879 L 771.05,381.522 L 773.043,381.113 L 774.959,380.678 L 776.798,380.231 L 778.561,379.72 L 780.272,379.197 L 781.907,378.648 L 783.44,378.085 L 784.883,377.46 L 786.237,376.808 L 787.489,376.169 L 788.664,375.492 L 789.725,374.777 L 790.683,374.075 L 791.551,373.334 L 792.241,372.593 L 792.905,371.852 L 793.429,371.073 L 793.825,370.294 L 794.119,369.54 L 794.272,368.735 L 794.336,367.956"/>
    <path style="fill: #0078aa" d="M 703.875 346.331 L 703.875,368.505 L 794.336,368.505 L 794.336,346.331 L 703.875,346.331z"/>
    <path style="fill: #00b4ff" d="M 794.872 346.063 L 794.796,345.258 L 794.63,344.44 L 794.349,343.661 L 793.953,342.869 L 793.416,342.077 L 792.79,341.311 L 792.037,340.557 L 791.193,339.829 L 790.223,339.088 L 789.15,338.399 L 787.987,337.696 L 786.723,337.032 L 785.356,336.368 L 783.9,335.767 L 782.342,335.167 L 780.707,334.592 L 779.008,334.056 L 777.219,333.558 L 775.367,333.085 L 773.439,332.651 L 771.446,332.255 L 769.389,331.871 L 767.295,331.539 L 765.174,331.233 L 762.99,330.977 L 760.767,330.76 L 758.519,330.581 L 756.246,330.441 L 753.972,330.339 L 751.673,330.275 L 749.373,330.262 L 749.373,330.262 L 747.062,330.275 L 744.762,330.339 L 742.489,330.441 L 740.215,330.581 L 737.967,330.76 L 735.744,330.977 L 733.56,331.233 L 731.427,331.539 L 729.332,331.871 L 727.288,332.255 L 725.296,332.651 L 723.367,333.085 L 721.515,333.558 L 719.727,334.056 L 718.015,334.592 L 716.393,335.167 L 714.834,335.767 L 713.378,336.368 L 712.011,337.032 L 710.747,337.696 L 709.584,338.399 L 708.512,339.088 L 707.541,339.829 L 706.698,340.557 L 705.944,341.311 L 705.318,342.077 L 704.782,342.869 L 704.373,343.661 L 704.079,344.44 L 703.926,345.258 L 703.862,346.063 L 703.862,346.063 L 703.926,346.855 L 704.079,347.659 L 704.373,348.451 L 704.782,349.218 L 705.318,350.01 L 705.944,350.776 L 706.698,351.53 L 707.541,352.283 L 708.512,353.011 L 709.584,353.701 L 710.747,354.391 L 712.011,355.081 L 713.378,355.719 L 714.834,356.332 L 716.393,356.933 L 718.015,357.495 L 719.727,358.044 L 721.515,358.529 L 723.367,359.002 L 725.296,359.449 L 727.288,359.871 L 729.332,360.216 L 731.427,360.56 L 733.56,360.867 L 735.744,361.11 L 737.967,361.327 L 740.215,361.506 L 742.489,361.646 L 744.762,361.761 L 747.062,361.825 L 749.373,361.838 L 749.373,361.838 L 751.673,361.825 L 753.972,361.761 L 756.246,361.646 L 758.519,361.506 L 760.767,361.327 L 762.99,361.11 L 765.174,360.867 L 767.295,360.56 L 769.389,360.216 L 771.446,359.871 L 773.439,359.449 L 775.367,359.002 L 777.219,358.529 L 779.008,358.044 L 780.707,357.495 L 782.342,356.933 L 783.9,356.332 L 785.356,355.719 L 786.723,355.081 L 787.987,354.391 L 789.15,353.701 L 790.223,353.011 L 791.193,352.283 L 792.037,351.53 L 792.79,350.776 L 793.416,350.01 L 793.953,349.218 L 794.349,348.451 L 794.63,347.659 L 794.796,346.855 L 794.872,346.063z"/>
    <path style="fill: none; fill-opacity:0; stroke-width: 0.02; stroke: #aae6ff" d="M 794.336 345.794 L 794.272,344.99 L 794.119,344.223 L 793.825,343.444 L 793.429,342.665 L 792.905,341.911 L 792.241,341.132 L 791.551,340.417 L 790.683,339.676 L 789.725,338.973 L 788.664,338.245 L 787.489,337.594 L 786.237,336.917 L 784.883,336.278 L 783.44,335.691 L 781.907,335.078 L 780.272,334.567 L 778.561,334.017 L 776.798,333.519 L 774.959,333.059 L 773.043,332.612 L 771.05,332.216 L 769.032,331.859 L 766.962,331.539 L 764.829,331.233 L 762.671,330.977 L 760.448,330.773 L 758.225,330.581 L 755.965,330.454 L 753.691,330.351 L 751.404,330.288 L 749.118,330.275 L 749.118,330.275 L 746.806,330.288 L 744.532,330.351 L 742.246,330.454 L 740.011,330.581 L 737.775,330.773 L 735.565,330.977 L 733.394,331.233 L 731.261,331.539 L 729.179,331.859 L 727.161,332.216 L 725.168,332.612 L 723.252,333.059 L 721.425,333.519 L 719.65,334.017 L 717.938,334.567 L 716.316,335.078 L 714.796,335.691 L 713.353,336.278 L 711.986,336.917 L 710.709,337.594 L 709.572,338.245 L 708.499,338.973 L 707.541,339.676 L 706.698,340.417 L 705.957,341.132 L 705.318,341.911 L 704.807,342.665 L 704.398,343.444 L 704.105,344.223 L 703.939,344.99 L 703.875,345.794 L 703.875,345.794 L 703.939,346.586 L 704.105,347.366 L 704.398,348.145 L 704.807,348.911 L 705.318,349.678 L 705.957,350.444 L 706.698,351.172 L 707.541,351.913 L 708.499,352.615 L 709.572,353.331 L 710.709,354.008 L 711.986,354.646 L 713.353,355.298 L 714.796,355.911 L 716.316,356.486 L 717.938,357.035 L 719.65,357.559 L 721.425,358.057 L 723.252,358.517 L 725.168,358.964 L 727.161,359.385 L 729.179,359.717 L 731.261,360.062 L 733.394,360.356 L 735.565,360.599 L 737.775,360.829 L 740.011,361.007 L 742.246,361.122 L 744.532,361.237 L 746.806,361.301 L 749.118,361.314 L 749.118,361.314 L 751.404,361.301 L 753.691,361.237 L 755.965,361.122 L 758.225,361.007 L 760.448,360.829 L 762.671,360.599 L 764.829,360.356 L 766.962,360.062 L 769.032,359.717 L 771.05,359.385 L 773.043,358.964 L 774.959,358.517 L 776.798,358.057 L 778.561,357.559 L 780.272,357.035 L 781.907,356.486 L 783.44,355.911 L 784.883,355.298 L 786.237,354.646 L 787.489,354.008 L 788.664,353.331 L 789.725,352.615 L 790.683,351.913 L 791.551,351.172 L 792.241,350.444 L 792.905,349.678 L 793.429,348.911 L 793.825,348.145 L 794.119,347.366 L 794.272,346.586 L 794.336,345.794"/>
    <path style="fill: #000000" d="M 750.217 342.473 L 756.833,344.696 L 772.838,338.028 L 780.004,340.238 L 776.134,334.72 L 757.395,334.72 L 765.098,336.368 L 750.217,342.473z"/>
    <path style="fill: #000000" d="M 747.445 348.566 L 740.841,346.331 L 725.385,353.011 L 717.67,350.776 L 721.515,356.869 L 740.841,356.869 L 732.551,354.646 L 747.445,348.566z"/>
    <path style="fill: #000000" d="M 719.318 336.368 L 725.922,334.158 L 741.939,340.238 L 749.118,338.59 L 745.26,344.108 L 726.484,344.108 L 734.199,342.473 L 719.318,336.368z"/>
    <path style="fill: #000000" d="M 778.893 355.196 L 772.263,357.418 L 756.833,350.776 L 749.118,353.011 L 752.976,347.442 L 772.263,347.442 L 763.999,349.103 L 778.893,355.196z"/>
    <path style="fill: #ffffff" d="M 750.766 343.023 L 757.395,345.232 L 773.362,338.59 L 780.553,340.813 L 776.683,335.256 L 757.932,335.256 L 765.66,336.904 L 750.766,343.023z"/>
    <path style="fill: #ffffff" d="M 748.007 349.103 L 741.365,346.893 L 725.922,353.535 L 718.206,351.325 L 722.064,357.418 L 741.365,357.418 L 733.1,355.196 L 748.007,349.103z"/>
    <path style="fill: #ffffff" d="M 719.867 336.904 L 726.484,334.72 L 742.489,340.813 L 749.655,339.127 L 745.81,344.696 L 727.033,344.696 L 734.774,343.023 L 719.867,336.904z"/>
    <path style="fill: #ffffff" d="M 779.429 355.77 L 772.838,357.98 L 757.395,351.325 L 749.655,353.535 L 753.512,348.017 L 772.838,348.017 L 764.561,349.665 L 779.429,355.77z"/>
    <path style="fill: none; fill-opacity:0; stroke-width: 0.02; stroke: #aae6ff" d="M 703.875 345.794 L 703.875,367.931"/>
    <path style="fill: none; fill-opacity:0; stroke-width: 0.02; stroke: #aae6ff" d="M 794.336 345.794 L 794.336,367.931"/>
  </g>
  <g>
    <path style="fill: #0096d4" d="M 705.478 202.432 L 705.478,224.647 L 793.358,224.647 L 793.358,202.432 L 705.478,202.432z"/>
    <path style="fill: none; fill-opacity:0; stroke-width: 0.02; stroke: #aae6ff" d="M 705.478 202.432 L 705.478,224.647 L 793.358,224.647 L 793.358,202.432 L 705.478,202.432"/>
    <path style="fill: #005a80" d="M 793.358 202.432 L 820.572,176.258 L 820.572,198.473 L 793.358,224.647 L 793.358,202.432z"/>
    <path style="fill: none; fill-opacity:0; stroke-width: 0.02; stroke: #aae6ff" d="M 793.358 202.432 L 820.572,176.258 L 820.572,198.473 L 793.358,224.647 L 793.358,202.432"/>
    <path style="fill: #00b4ff" d="M 793.358 202.432 L 820.572,176.258 L 732.631,176.258 L 705.478,202.432 L 793.358,202.432z"/>
    <path style="fill: none; fill-opacity:0; stroke-width: 0.02; stroke: #aae6ff" d="M 793.358 202.432 L 820.572,176.258 L 732.631,176.258 L 705.478,202.432 L 793.358,202.432"/>
    <path style="fill: #000000" d="M 760.585 189.755 L 757.406,192.874 L 779.761,192.874 L 776.582,196.873 L 794.957,192.094 L 785.38,188.155 L 782.96,189.755 L 760.585,189.755z"/>
    <path style="fill: #000000" d="M 771.783 179.437 L 768.583,182.596 L 790.958,182.596 L 786.959,186.555 L 806.135,181.037 L 795.757,177.037 L 794.198,179.437 L 771.783,179.437z"/>
    <path style="fill: #000000" d="M 752.587 198.473 L 755.846,195.273 L 732.631,195.273 L 736.631,191.314 L 718.215,196.053 L 727.833,200.052 L 729.452,198.473 L 752.587,198.473z"/>
    <path style="fill: #000000" d="M 763.005 187.315 L 766.204,184.216 L 743.829,184.216 L 747.848,180.217 L 728.632,185.755 L 739.01,189.755 L 740.61,187.315 L 763.005,187.315z"/>
    <path style="fill: #ffffff" d="M 761.385 190.494 L 758.206,193.674 L 780.581,193.674 L 777.381,197.653 L 795.757,192.874 L 786.139,188.935 L 783.78,190.494 L 761.385,190.494z"/>
    <path style="fill: #ffffff" d="M 772.582 180.217 L 769.383,183.376 L 791.758,183.376 L 787.759,187.315 L 806.955,181.776 L 796.577,177.837 L 794.957,180.217 L 772.582,180.217z"/>
    <path style="fill: #ffffff" d="M 753.387 199.252 L 756.586,196.053 L 733.451,196.053 L 737.39,192.094 L 719.035,196.873 L 728.632,200.832 L 730.212,199.252 L 753.387,199.252z"/>
    <path style="fill: #ffffff" d="M 763.764 188.155 L 767.004,184.956 L 744.589,184.956 L 748.608,181.037 L 729.452,186.555 L 739.83,190.494 L 741.389,188.155 L 763.764,188.155z"/>
  </g>
  <text font-size="12.8" style="fill: #000000;text-anchor:start;font-family:sans-serif;font-style:normal;font-weight:normal" x="245.5" y="438.042">
    <tspan x="245.5" y="438.042"></tspan>
  </text>
  <text font-size="12.8" style="fill: #000000;text-anchor:start;font-family:sans-serif;font-style:normal;font-weight:normal" x="214" y="316.542">
    <tspan x="214" y="316.542"></tspan>
  </text>
  <text font-size="12.8" style="fill: #000000;text-anchor:start;font-family:sans-serif;font-style:normal;font-weight:normal" x="148" y="579.042">
    <tspan x="148" y="579.042"></tspan>
  </text>
  <text font-size="12.8" style="fill: #000000;text-anchor:start;font-family:sans-serif;font-style:normal;font-weight:normal" x="544" y="567.042">
    <tspan x="544" y="567.042"></tspan>
  </text>
  <text font-size="12.8" style="fill: #000000;text-anchor:start;font-family:monospace;font-style:normal;font-weight:700" x="79.9" y="455.105">
    <tspan x="79.9" y="455.105">LB0: VIP:192.168.1.100:80 - 192.168.1.{11,12}:80</tspan>
  </text>
  <text font-size="12.8" style="fill: #000000;text-anchor:middle;font-family:monospace;font-style:normal;font-weight:700" x="541.972" y="195.031">
    <tspan x="541.972" y="195.031">public</tspan>
    <tspan x="541.972" y="211.031">network</tspan>
  </text>
  <text font-size="12.8" style="fill: #000000;text-anchor:start;font-family:monospace;font-style:normal;font-weight:700" x="754.5" y="172.031">
    <tspan x="754.5" y="172.031">public</tspan>
  </text>
</svg>
